<?xml version="1.0" encoding="UTF-8" standalone="no"?>
<svg xmlns="http://www.w3.org/2000/svg" version="1.1" viewBox="0 0 367 96">
<path fill-rule="evenodd" fill="#276eb7" d="M0.43078 24a48 48 0 1 1 0 48H52a1 1 0 0 0 1-1v-15 h5a1 1 0 0 0 1-1v-14a1 1 0 0 0-1-1h-5v-15a1 1 0 0 0-1-1zM64 45v6h7v7h6v-7h7v-6h-7v-7h-6v7zM4.5 35v26h17.912v-4.8212h-11.644v-6.1985h9.858v-4.6605h-9.858v-5.4824h11.679v-4.8375h-17.946zm20 0 8.6801 26h6.8574l8.7493-26h-6.9998l-5.1792 18.927-5.1609-18.927h-6.947z"/>
<path fill="#383838" d="m329.07 27c-1.4849 0-2.6984 0.44196-3.6433 1.329-0.92562 0.88706-1.39 2.0069-1.39 3.3568s0.46439 2.4678 1.39 3.3549c0.92563 0.88705 2.1391 1.3309 3.6433 1.3309 1.5041 0 2.7195-0.44382 3.6451-1.3309 0.92562-0.88707 1.3882-2.005 1.3882-3.3549s-0.47284-2.4697-1.4178-3.3568c-0.92562-0.88706-2.1307-1.329-3.6155-1.329zm-20.157 0.17191v15.505h-0.11645c-1.5427-2.1598-4.127-3.2384-7.7523-3.2384-3.6446 0-6.7392 1.3773-9.2847 4.1349-2.5262 2.7383-3.7893 6.374-3.7893 10.906 0 4.2617 1.1948 7.7523 3.586 10.471 2.4105 2.6998 5.3617 4.05 8.8521 4.05 4.2039 0 7.2881-1.6405 9.2551-4.9187h0.11646l0.3475 4.2809h7.9834c-0.15427-2.5454-0.23105-5.36-0.23105-8.4454v-32.745h-8.9667zm-190.83 1.8521c-4.7824 0-8.8123 0.2884-12.091 0.86691v38.471h8.8521v-15.329h2.7763c2.0441 0 3.5291 0.4626 4.4547 1.3882 0.92562 0.9256 1.6578 2.5454 2.1978 4.8595 1.0799 4.6089 2.005 7.6351 2.7763 9.0813h9.1405c-0.17356-0.4242-1.2522-4.1264-3.2384-11.107-1.0799-3.876-2.8346-6.2674-5.2643-7.1737v-0.2311c2.0634-0.7135 3.7412-1.9373 5.0333-3.6728 1.3113-1.7549 1.9667-3.7127 1.9667-5.8725 0-3.6254-1.2921-6.4128-3.8762-8.3604-2.584-1.9477-6.8274-2.9205-12.728-2.9205zm0.98337 6.5952c2.1405 0 3.7894 0.47284 4.9464 1.4178 1.1763 0.92562 1.7652 2.2468 1.7652 3.963 0 1.7163-0.64697 3.0852-1.939 4.1072-1.292 1.0027-3.0551 1.5027-5.2921 1.5027h-3.7024v-10.702c0.7135-0.19284 2.1199-0.28836 4.2218-0.28836zm35.209 3.8189c-4.7052 0-8.4842 1.3773-11.338 4.1349-2.854 2.7383-4.281 6.3553-4.281 10.848 0 4.3775 1.4167 7.9055 4.2514 10.586 2.8347 2.6612 6.4704 3.9927 10.906 3.9927 4.3967 0 8.0512-1.3605 10.963-4.0795 2.9119-2.719 4.366-6.3922 4.366-11.02 0-4.2424-1.3774-7.7143-4.1349-10.414-2.7576-2.6998-6.3352-4.0481-10.732-4.0481zm36.558 0c-3.8182 0-6.7302 1.5225-8.7357 4.5693h-0.17375l-0.40481-3.9335h-7.5212c0.15426 3.259 0.23105 6.287 0.23105 9.0832v19.205h8.6784v-16.314c0-1.6198 0.45225-2.9307 1.3586-3.9334 0.92563-1.0028 2.0164-1.5047 3.2699-1.5047 1.3499 0 2.3911 0.5309 3.1238 1.5915 0.73279 1.0607 1.0998 2.5747 1.0998 4.5416v15.619h8.6765v-16.372c0-1.6006 0.42509-2.8927 1.2736-3.8761 0.86777-1.0028 1.9464-1.5047 3.2384-1.5047 2.8926 0 4.3401 2.1798 4.3401 6.5379v15.214h8.6765v-16.486c0-3.9725-0.88577-7.0398-2.6599-9.1996-1.7548-2.1598-4.1275-3.2384-7.1164-3.2384-3.8375 0-6.9423 1.6573-9.3142 4.9741h-0.1146c-0.63636-1.5813-1.6588-2.805-3.0666-3.6728-1.4077-0.86777-3.0275-1.3013-4.8595-1.3013zm45.242 0c-4.3774 0-8.1377 0.86704-11.281 2.6026l1.6765 5.6691c2.4683-1.427 5.1499-2.1404 8.0425-2.1404 3.5482 0 5.3216 1.176 5.3216 3.5286v0.3475c-5.4959 0-9.7187 0.9354-12.669 2.8059-2.9312 1.8706-4.3974 4.5607-4.3974 8.0703 0 2.4105 0.86704 4.4638 2.6026 6.1608 1.7356 1.6777 3.9921 2.5176 6.7689 2.5176 3.5675 0 6.3259-1.1573 8.2736-3.4714h0.23106l0.52125 2.8336h8.0407c-0.30854-1.7355-0.46211-4.0295-0.46211-6.8835v-9.8355c0-3.9339-1.0702-6.9517-3.2107-9.0536s-5.2931-3.1516-9.4584-3.1516zm36.514 0c-3.8761 0-6.8648 1.5412-8.9667 4.6266h-0.23106l-0.40481-3.9908h-7.7523c0.15426 3.259 0.23105 6.287 0.23105 9.0832v19.205h8.9667v-16.198c0-1.7742 0.50186-3.1431 1.5046-4.1072 1.0028-0.9642 2.1413-1.4474 3.414-1.4474 3.124 0 4.6858 2.103 4.6858 6.3069v15.445h8.9667v-16.602c0-3.9146-0.94567-6.9427-2.8355-9.0832-1.8705-2.1598-4.3967-3.2384-7.5786-3.2384zm80.571 0c-4.4738 0-8.0328 1.4934-10.675 4.4824-2.6419 2.9697-3.9612 6.508-3.9612 10.616 0 4.4739 1.3689 8.0038 4.1072 10.588 2.7576 2.584 6.5553 3.8762 11.396 3.8762 4.0882 0 7.5994-0.618 10.53-1.8522l-1.1571-5.9593c-2.4683 0.8099-5.1687 1.2163-8.0998 1.2163-2.2948 0-4.2133-0.4626-5.756-1.3882-1.5234-0.945-2.3633-2.2576-2.5176-3.9353h18.802c0.23141-0.9063 0.3475-2.0431 0.3475-3.4122 0-4.1654-1.1386-7.5791-3.414-10.24-2.2755-2.6612-5.4758-3.9908-9.6026-3.9908zm-28.549 0.63586v28.288h8.9686v-28.288h-8.9686zm28.087 5.2643c1.8705 0 3.1898 0.6077 3.9612 1.8226 0.79064 1.1956 1.1867 2.4587 1.1867 3.7892h-10.876c0.25068-1.6776 0.87709-3.0278 1.8799-4.0499 1.022-1.0413 2.3057-1.5619 3.8484-1.5619zm-198.77 0.4621c1.8513 0 3.2988 0.7818 4.3401 2.3438s1.5619 3.5761 1.5619 6.0444c0 2.584-0.54961 4.6392-1.6488 6.1627-1.0799 1.5234-2.5172 2.2846-4.3105 2.2846-1.832 0-3.2982-0.7715-4.3974-2.3142-1.0799-1.5427-1.6192-3.5671-1.6192-6.074 0-2.4876 0.53089-4.5138 1.5915-6.0757 1.0799-1.5813 2.5733-2.3716 4.4824-2.3716zm149.48 0.464c1.6198 0 2.941 0.558 3.963 1.6765s1.5342 2.5454 1.5342 4.281v3.2976c0 2.2176-0.57864 3.8374-1.7357 4.8595-1.157 1.0027-2.4304 1.5046-3.8189 1.5046-1.9284 0-3.4612-0.6948-4.5989-2.0832-1.1378-1.3884-1.708-3.2591-1.708-5.6118 0-2.3719 0.57019-4.2802 1.708-5.7264 1.1377-1.4656 2.6892-2.1978 4.6562-2.1978zm-63.288 8.7357v2.8909c0 1.5427-0.52059 2.7393-1.5619 3.5878-1.022 0.8485-2.14 1.2717-3.3549 1.2717-1.1185 0-1.9958-0.2884-2.6322-0.8669-0.63638-0.5978-0.95379-1.4274-0.95379-2.488 0-2.9312 2.8333-4.3955 8.5028-4.3955z"/>
</svg>

