<?xml version="1.0" encoding="UTF-8" standalone="no"?>
<svg xmlns="http://www.w3.org/2000/svg" viewBox="0 0 589.76312 108.738" version="1.1">
<path fill="#383838" d="m246.94 17.63c-8.3333 0-14.714 3.1576-19.141 9.4727-4.4271 6.2825-6.6406 15.332-6.6406 27.148 0 11.914 2.2135 21.045 6.6406 27.393 4.4271 6.3151 10.775 9.4727 19.043 9.4727 8.2357 0 14.567-3.1738 18.994-9.5215 4.4271-6.3476 6.6406-15.43 6.6406-27.246s-2.1973-20.882-6.5918-27.197c-4.3945-6.3476-10.71-9.5215-18.945-9.5215zm123.88 0.83008-17.676 71.68h13.281l4.1016-18.018h18.604l4.1016 18.018h13.33l-17.725-71.68h-18.018zm-196.46 0.29297v71.387h13.281v-27.783h4.7363l11.279 27.783h14.209l-13.721-31.299c6.0872-3.5807 9.1309-9.8796 9.1309-18.896 0-7.1614-1.7578-12.484-5.2734-15.967-3.4831-3.4831-8.903-5.2246-16.26-5.2246h-17.383zm107.57 0v71.387h12.305v-47.9c0-3.9062-0.30925-8.2031-0.92773-12.891h0.53711l13.574 60.791h14.502l13.525-60.693h0.39062c-0.45572 4.1992-0.68359 8.3008-0.68359 12.305v48.389h12.598v-71.387h-20.703l-12.109 56.104h-0.39063l-12.207-56.104h-20.41zm130.03 0v71.387h12.305v-39.014c0-4.5247-0.4069-8.7565-1.2207-12.695h0.63476l22.07 51.709h16.211v-71.387h-12.207v38.965c0 4.72 0.30924 8.7891 0.92774 12.207h-0.53711l-21.875-51.172h-16.309zm61.695 0v71.387h17.48c9.0169 0 15.918-3.1087 20.703-9.3262 4.8177-6.25 7.2266-15.267 7.2266-27.051 0-11.068-2.3112-19.661-6.9336-25.781-4.6224-6.1523-11.084-9.2285-19.385-9.2285h-19.092zm57.252 0v71.387h12.5v-71.387h-12.5zm26.686 0v71.387h32.178v-11.621h-18.896v-19.775h17.529v-11.523h-17.529v-16.992h18.896v-11.475h-32.178zm-177.74 9.2773c0.16276 1.3672 0.63476 4.0853 1.416 8.1543 0.8138 4.0364 1.3346 6.5592 1.5625 7.5684l3.8086 16.602h-13.477c2.7344-12.012 4.4271-19.694 5.0781-23.047 0.65104-3.3854 1.1882-6.4779 1.6113-9.2773zm-132.91 1.3184c7.9427 0 11.914 8.3333 11.914 25s-4.0039 25-12.012 25c-3.9714 0-6.9824-2.1322-9.0332-6.3965s-3.0762-10.465-3.0762-18.604c0-8.1706 1.0254-14.372 3.0762-18.604 2.0508-4.2643 5.0944-6.3965 9.1309-6.3965zm-59.303 0.87891h3.3203c3.0274 0 5.2572 0.78124 6.6895 2.3437 1.4648 1.53 2.1973 4.1178 2.1973 7.7637 0 3.5156-0.68359 6.1686-2.0508 7.959-1.3672 1.7578-3.6133 2.6367-6.7383 2.6367h-3.418v-20.703zm299.3 0h5.3223c8.7891 0 13.184 7.9753 13.184 23.926 0 8.138-1.1556 14.242-3.4668 18.311-2.3112 4.0365-5.8919 6.0547-10.742 6.0547h-4.2969v-48.291z"/>
<path fill="#276eb7" d="m12.861 0c-7.0435 0-12.869 5.8261-12.869 12.869v83c0 7.043 5.8261 12.869 12.869 12.869h116.19c7.043 0 12.869-5.826 12.869-12.869v-13.398h9.5117v-56.203h-9.5117v-13.398c0-7.0431-5.8261-12.869-12.869-12.869h-116.19zm0 10h116.19c1.6758 0 2.8691 1.1933 2.8691 2.8691v23.398h9.5117v36.203h-9.5117v23.398c0 1.6758-1.1933 2.8691-2.8691 2.8691h-116.19c-1.6759 0-2.8691-1.1932-2.8691-2.8691v-83c0-1.676 1.1932-2.8691 2.8691-2.8691zm16.451 11.031v65h37.436v-12.381h-23.652v-15.762h22.006v-11.293h-22.006v-13.271h23.652v-12.293h-37.436zm43.211 0 15.205 65h15.383l15.295-65h-14.182l-8.4043 39.703-0.31055 1.4883-0.3125-1.4883-8.4922-39.703h-14.182z"/>
</svg>
