<svg xmlns="http://www.w3.org/2000/svg" width="481" height="98" viewBox="0 0 481 98">
  <g fill="none">
    <g transform="translate(115 25)">
      <path fill="#7ED321" d="M38.8448 47.4261C38.8448 54.0771 32.4708 57.4041 19.7228 57.4041 6.9738 57.4041.5998 54.0771.5998 47.4261L.5998 10.5841C.5998 3.9321 6.9738.6061 19.7228.6061 32.4708.6061 38.8448 3.9321 38.8448 10.5841L38.8448 18.2591 27.3718 18.2591 27.3718 12.1191C27.3718 9.0491 24.8218 7.5141 19.7228 7.5141 14.6228 7.5141 12.0738 9.0491 12.0738 12.1191L12.0738 45.8911C12.0738 48.4491 14.6228 49.7291 19.7228 49.7291 24.8218 49.7291 27.3718 48.4491 27.3718 45.8911L27.3718 39.7501 38.8448 39.7501 38.8448 47.4261M43.2648.0672L54.7378.0672 54.7378 22.3252C54.7378 18.2322 58.6848 16.1852 66.5888 16.1852 74.4928 16.1852 78.4498 19.5112 78.4498 26.1632L78.4498 56.8642 66.2118 56.8642 66.2118 27.6982C66.2118 25.1402 64.4268 23.8602 60.8568 23.8602 56.7778 23.8602 54.7378 25.1402 54.7378 27.6982L54.7378 56.8642 43.2648 56.8642 43.2648.0672M103.4777 52.5687C103.4777 55.8537 101.3257 57.4807 97.0527 57.4807 87.5577 57.4807 82.8257 54.1547 82.8257 47.5037L82.8257 42.2947C82.8257 35.4267 88.1797 31.9887 98.8887 31.9887 101.9477 31.9887 103.4777 31.0377 103.4777 29.0827L103.4777 27.5477C103.4777 24.9887 101.9477 23.7097 98.8887 23.7097 96.5327 23.7097 95.3697 24.9887 95.3697 27.5477L95.3697 29.0827 83.8967 29.0827 83.8967 26.0117C83.8967 19.3607 88.8837 16.0337 98.8887 16.0337 109.5967 16.0337 114.9507 19.3607 114.9507 26.0117L114.9507 51.3407C114.9507 54.9227 115.9707 56.7137 118.0107 56.7137L106.5377 56.7137C104.4977 56.7137 103.4777 55.3417 103.4777 52.5687zM103.4777 37.3617C103.4777 38.8967 101.9477 39.6647 98.8887 39.6647 95.8287 39.6647 94.2987 41.0557 94.2987 43.8297L94.2987 45.9677C94.2987 48.5267 95.8287 49.8057 98.8887 49.8057 101.9477 49.8057 103.4777 47.9027 103.4777 44.0947L103.4777 37.3617zM120.4376 16.8016L131.9106 16.8016 131.9106 22.1746C131.9106 18.0806 135.1636 16.0336 141.6906 16.0336 148.2286 16.0336 151.4916 19.3606 151.4916 26.0116L151.4916 30.6176 140.0196 30.6176 140.0196 27.5476C140.0196 24.9886 138.6736 23.7096 135.9596 23.7096 133.2466 23.7096 131.9106 24.9886 131.9106 27.5476L131.9106 56.7136 120.4376 56.7136 120.4376 16.8016M177.8442 16.802L189.3182 16.802 189.3182 62.854C189.3182 68.483 183.4542 71.296 171.7252 71.296 159.9972 71.296 154.1332 68.483 154.1332 62.854L154.1332 60.551 165.6072 60.551 165.6072 61.319C165.6072 62.854 167.6462 63.621 171.7252 63.621 175.8052 63.621 177.8442 62.854 177.8442 61.319L177.8442 51.341C177.8442 55.434 173.8972 57.481 165.9932 57.481 158.0892 57.481 154.1332 54.155 154.1332 47.503L154.1332 26.012C154.1332 19.36 158.0892 16.034 165.9932 16.034 173.8972 16.034 177.8442 18.081 177.8442 22.175L177.8442 16.802zM171.7252 49.806C175.8052 49.806 177.8442 48.527 177.8442 45.968L177.8442 27.547C177.8442 24.989 175.8052 23.709 171.7252 23.709 167.6462 23.709 165.6072 24.989 165.6072 27.547L165.6072 45.968C165.6072 48.527 167.6462 49.806 171.7252 49.806zM211.5847 16.0343C223.3127 16.0343 229.1777 19.3603 229.1777 26.0123L229.1777 40.5953 205.4657 40.5953 205.4657 45.9683C205.4657 48.5263 207.5057 49.8063 211.5847 49.8063 215.6647 49.8063 217.7037 48.5263 217.7037 45.9683L217.7037 44.4333 229.1777 44.4333 229.1777 47.5033C229.1777 54.1543 223.3127 57.4813 211.5847 57.4813 199.8567 57.4813 193.9927 54.1543 193.9927 47.5033L193.9927 26.0123C193.9927 19.3603 199.8567 16.0343 211.5847 16.0343zM217.7037 32.9203L217.7037 27.5473C217.7037 24.9883 215.6647 23.7093 211.5847 23.7093 207.5057 23.7093 205.4657 24.9883 205.4657 27.5473L205.4657 32.9203 217.7037 32.9203z"/>
      <path fill="#28B7EC" d="M234.6305 16.8016L246.1045 16.8016 246.1045 22.1746C246.1045 18.0806 249.0815 16.0336 255.0385 16.0336 261.0055 16.0336 264.5535 17.6816 265.6875 20.9466 267.1245 17.6816 271.2845 16.0336 278.1685 16.0336 285.0315 16.0336 288.4695 19.3606 288.4695 26.0116L288.4695 56.7136 276.9955 56.7136 276.9955 28.3146C276.9955 25.2446 275.3635 23.7096 272.1095 23.7096 268.8375 23.7096 267.2165 25.2446 267.2165 28.3146L267.2165 56.7136 256.0475 56.7136 256.0475 28.3146C256.0475 25.2446 254.3865 23.7096 251.0705 23.7096 247.7565 23.7096 246.1045 25.2446 246.1045 28.3146L246.1045 56.7136 234.6305 56.7136 234.6305 16.8016M313.3864 52.5687C313.3864 55.8537 311.2354 57.4807 306.9624 57.4807 297.4674 57.4807 292.7344 54.1547 292.7344 47.5037L292.7344 42.2947C292.7344 35.4267 298.0884 31.9887 308.7974 31.9887 311.8564 31.9887 313.3864 31.0377 313.3864 29.0827L313.3864 27.5477C313.3864 24.9887 311.8564 23.7097 308.7974 23.7097 306.4434 23.7097 305.2694 24.9887 305.2694 27.5477L305.2694 29.0827 293.7954 29.0827 293.7954 26.0117C293.7954 19.3607 298.7944 16.0337 308.7974 16.0337 319.5054 16.0337 324.8604 19.3607 324.8604 26.0117L324.8604 51.3407C324.8604 54.9227 325.8794 56.7137 327.9194 56.7137L316.4464 56.7137C314.4064 56.7137 313.3864 55.3417 313.3864 52.5687zM313.3864 37.3617C313.3864 38.8967 311.8564 39.6647 308.7974 39.6647 305.7384 39.6647 304.2074 41.0557 304.2074 43.8297L304.2074 45.9677C304.2074 48.5267 305.7384 49.8057 308.7974 49.8057 311.8564 49.8057 313.3864 47.9027 313.3864 44.0947L313.3864 37.3617zM342.0076 16.802L342.0076 22.175C342.0076 18.081 345.9546 16.034 353.8576 16.034 361.7626 16.034 365.7196 19.36 365.7196 26.012L365.7196 47.503C365.7196 54.155 361.7626 57.481 353.8576 57.481 345.9546 57.481 342.0076 55.434 342.0076 51.341L342.0076 71.296 330.5336 71.296 330.5336 16.802 342.0076 16.802zM348.1266 49.806C352.2056 49.806 354.2456 48.271 354.2456 45.201L354.2456 28.315C354.2456 25.244 352.2056 23.709 348.1266 23.709 344.0476 23.709 342.0076 25.244 342.0076 28.315L342.0076 45.201C342.0076 48.271 344.0476 49.806 348.1266 49.806z"/>
    </g>
    <path fill="#28B7EC" d="M0.0001,11.9998 C0.0001,4.0698 4.0561,-0.0002 11.9581,-0.0002 L85.7041,-0.0002 C93.6061,-0.0002 97.6621,4.0698 97.6621,11.9998 L97.6621,85.9998 C97.6621,93.9308 93.6061,97.9998 85.7041,97.9998 L11.9581,97.9998 C4.0561,97.9998 0.0001,93.9308 0.0001,85.9998 L0.0001,11.9998 Z"/>
    <path fill="#FFFFFF" d="M0.0001,55.0003 L35.9961,55.0003 C38.2481,55.0003 40.8291,58.1203 40.8291,59.8803 L40.7391,81.1203 C41.4771,81.8803 43.2301,82.3803 43.9681,82.3803 C44.9641,82.3803 46.0901,82.1203 46.8381,81.6203 L46.8381,47.7293 C39.3241,46.1303 34.8791,37.9393 34.8791,25.0003 L38.8661,25.0003 L38.8661,15.5003 C38.8661,14.6693 39.5331,14.0003 40.3601,14.0003 L43.3501,14.0003 C44.1771,14.0003 44.8451,14.6693 44.8451,15.5003 L44.8451,25.0003 L54.8111,25.0003 L54.8111,15.5003 C54.8111,14.6693 55.4781,14.0003 56.3051,14.0003 L59.2951,14.0003 C60.1221,14.0003 60.7901,14.6693 60.7901,15.5003 L60.7901,25.0003 L63.9291,25.0003 C63.9291,37.3703 59.7631,45.3903 52.8171,47.4793 L52.8171,81.8803 C52.8171,86.8103 48.2031,88.4203 43.8481,88.3403 C38.6461,88.2503 34.8791,86.8803 34.8791,82.0003 L34.8791,60.8303 L0.0001,60.9283 L0.0001,55.0003 Z"/>
  </g>
</svg>