<?xml version="1.0" encoding="UTF-8"?>
<!-- Generator: Adobe Illustrator 16.0.0, SVG Export Plug-In . SVG Version: 6.00 Build 0)  -->
<!DOCTYPE svg PUBLIC "-//W3C//DTD SVG 1.1 Tiny//EN" "http://www.w3.org/Graphics/SVG/1.1/DTD/svg11-tiny.dtd">
<svg version="1.1" baseProfile="tiny" id="Layer_1" xmlns="http://www.w3.org/2000/svg" xmlns:xlink="http://www.w3.org/1999/xlink" x="0px" y="0px" width="339.5px" height="247.5px" viewBox="0 0 339.5 247.5" xml:space="preserve">
<g>
	<path fill="#7D277C" d="M117.757,244.192l9.037-73.601h-18.121l-17.569,26.055c-1.927,2.776-3.915,6.047-5.778,9.117h-0.198   c-1.007-3.07-2.204-6.242-3.449-9.019l-11.06-26.153H52.499l-9.037,73.601h17.823l4.487-36.547c0.536-4.361,0.85-7.727,1.175-11.99   h0.198c1.093,3.172,2.365,6.542,3.598,9.413l7.103,17.241h10.801l11.535-17.241c1.938-2.871,4.008-6.043,5.91-9.413h0.198   c-0.82,4.264-1.333,7.629-1.868,11.99l-4.487,36.547H117.757L117.757,244.192z M192.191,211.702l1.059-8.62   c2.92-23.783-7.509-33.978-26.142-33.978c-18.629,0-31.462,10.194-34.382,33.978l-1.059,8.62   c-2.932,23.883,7.299,34.076,26.027,34.076C176.426,245.778,189.259,235.585,192.191,211.702 M178.429,211.702   c-2.033,16.552-9.252,22.099-19.265,22.099c-9.913,0-15.77-5.547-13.738-22.099l1.046-8.521   c2.02-16.452,9.141-22.003,19.154-22.003c10.111,0,15.869,5.551,13.848,22.003L178.429,211.702L178.429,211.702z M259.663,170.592   h-9.314l-24.068,53.985c-1.898,4.163-3.462,8.818-4.824,12.682h-0.198c-0.53-3.765-0.937-8.519-1.814-12.682l-10.809-53.985h-9.707   l15.233,73.601h12.189L259.663,170.592L259.663,170.592z M299.957,244.192l0.716-5.832h-35.766l3.626-29.537h33.392l0.74-6.029   h-33.391l3.226-26.271h35.765l0.729-5.931h-42.392l-9.037,73.601H299.957L299.957,244.192z"/>
</g>
<path fill="#7D277C" d="M42.231,157.055c16.869,0,31.883-10.702,37.683-26.155h109.941c5.741,15.61,20.867,26.423,37.984,26.423  c22.325,0,40.495-18.166,40.495-40.495c0-11.693-5.093-22.779-13.821-30.43c0.719-7.034,2.227-21.701,3.098-28.417  c0.765-5.898,3.23-12.933,10.624-12.933h11.792c0.74,3.205,2.239,6.146,4.42,8.62c3.768,4.25,9.12,6.593,15.072,6.593h8.885  c1.971,0,3.622-1.463,3.858-3.421l0.549-4.457l0.252-2.061h19.83c1.797,0,3.491-1.521,3.714-3.321  c0.099-0.813-0.116-1.569-0.603-2.119c-0.484-0.545-1.19-0.847-1.987-0.847h-20.189l1.466-12.048h19.851  c1.792,0,3.491-1.521,3.717-3.313c0.096-0.813-0.115-1.569-0.611-2.123c-0.479-0.545-1.181-0.847-1.983-0.847h-20.214l0.26-2.053  l0.425-3.527c0.137-1.103-0.21-2.214-0.945-3.053c-0.744-0.83-1.806-1.309-2.921-1.309h-8.876c-5.836,0-11.569,2.263-16.147,6.373  c-2.705,2.425-4.803,5.332-6.236,8.509h-13.379c-13.325,0-22.871,9.761-24.907,25.48c-1.19,9.179-3.453,31.797-3.54,32.755  l-0.417,4.185l3.436,2.421c6.96,4.902,11.12,12.879,11.12,21.342c0,14.388-11.702,26.084-26.088,26.084  c-12.333,0-23.061-8.689-25.514-20.661l-1.182-5.762H68.695l-1.21,5.709c-2.511,11.846-13.135,20.449-25.254,20.449  c-14.233,0-25.828-11.585-25.828-25.819c0-18.307,17.133-34.44,25.361-42.193c0.615-0.573,1.177-1.11,1.702-1.61  c13.779-13.144,42.515-36.778,80.243-47.353c48.55-13.605,86.91-12.085,106.547,3.99c2.647-3.961,5.848-7.562,9.59-10.768  c-23.523-19.728-65.778-22.293-120.024-7.093C79.083,23.214,48.266,48.533,33.512,62.606c-0.492,0.471-1.037,0.987-1.623,1.54  C22.19,73.283,2,92.296,2,116.827C2,139.013,20.046,157.055,42.231,157.055z"/>
</svg>