<?xml version="1.0" encoding="UTF-8"?>
<!-- Generator: Adobe Illustrator 12.0.0, SVG Export Plug-In . SVG Version: 6.00 Build 51448)  -->
<!DOCTYPE svg PUBLIC "-//W3C//DTD SVG 1.1//EN" "http://www.w3.org/Graphics/SVG/1.1/DTD/svg11.dtd">
<svg version="1.1" id="Layer_1" xmlns="http://www.w3.org/2000/svg" xmlns:xlink="http://www.w3.org/1999/xlink" width="265.326" height="58.586" viewBox="0 0 265.326 58.586" overflow="visible" enable-background="new 0 0 265.326 58.586" xml:space="preserve">
<g>
	<path d="M86.965,19.722c-2.568,0-4.614,0.973-5.947,2.82v-2.689h-4.051v24.053h4.051v-9.041c1.336,1.847,3.403,2.822,6.011,2.822   c5.022,0,8.396-3.584,8.396-8.918C95.425,23.356,92.025,19.722,86.965,19.722 M86.178,23.147c2.992,0,5.164,2.309,5.164,5.488   c0,3.271-2.124,5.557-5.164,5.557c-3.038,0-5.16-2.285-5.16-5.557C81.018,25.405,83.14,23.147,86.178,23.147"/>
	<rect x="99.866" y="12.976" width="4.051" height="24.578"/>
	<path d="M122.05,28.573c0,3.104-1.866,5.232-4.641,5.291c-2.452,0-3.917-1.525-3.917-4.08v-9.932h-4.05v10.977   c0,4.23,2.5,6.857,6.525,6.857h0.001h0.001c2.839-0.035,4.882-1.082,6.081-3.115v2.981h4.047v-17.7h-4.047V28.573z"/>
	<path d="M143.998,22.353c-1.269-1.725-3.206-2.633-5.632-2.633l-0.12,0.002c-4.706,0.033-7.867,3.418-7.867,8.424   c0,5.119,3.215,8.557,8,8.557c2.443,0,4.376-0.904,5.619-2.621v1.727c0,2.918-2.09,4.803-5.324,4.803   c-1.978,0-3.637-0.578-5.385-1.873l-0.126-0.092l-1.754,2.969l0.111,0.074c2.271,1.535,4.733,2.314,7.318,2.314   c5.573,0,9.175-3.254,9.175-8.293V19.853h-4.015V22.353z M139.13,33.474c-2.918,0-4.9-2.102-4.934-5.227   c0.033-3.061,2.062-5.197,4.934-5.197c2.866,0,4.868,2.137,4.868,5.194C143.998,31.323,141.996,33.474,139.13,33.474"/>
	<path d="M159.617,26.813c-1.81-0.541-3.372-1.008-3.372-2.236c0-1.318,1.313-1.594,2.416-1.594c1.525,0,3.415,0.582,4.932,1.52   l0.132,0.082l1.501-3.033l-0.099-0.07c-1.566-1.105-3.932-1.793-6.175-1.793c-3.17,0-6.558,1.361-6.558,5.182   c-0.02,3.693,3.105,4.63,5.616,5.382c1.887,0.563,3.517,1.052,3.517,2.478c0,1.557-1.891,1.725-2.703,1.725   c-1.974,0-4.332-0.873-5.733-2.123l-0.139-0.125l-1.474,2.947l0.08,0.072c1.676,1.518,4.397,2.461,7.103,2.461   c3.145,0,6.817-1.393,6.817-5.314C165.5,28.573,162.238,27.599,159.617,26.813"/>
	<path d="M181.682,28.573c0,3.104-1.866,5.232-4.641,5.291c-2.452,0-3.917-1.525-3.917-4.08v-9.932h-4.051v10.977   c0,4.23,2.5,6.857,6.525,6.857h0.001h0.001c2.839-0.035,4.882-1.082,6.081-3.115v2.981h4.047v-17.7h-4.047V28.573z"/>
	<path d="M194.695,22.909v-3.057h-4.047v17.702h4.047l-0.001-9.231c0.29-2.918,2.368-4.728,5.425-4.728   c0.147,0,0.298,0.003,0.451,0.011l0.149,0.01v-3.895h-0.142C197.956,19.722,195.934,20.821,194.695,22.909"/>
	<path d="M212.036,12.812c-2.952,0-6.13,1.92-6.13,6.135v1.561h-2.293v3.1h2.293v13.947h4.015V23.606h4.552v-3.1h-4.552v-1.922   c0-1.387,0.828-2.215,2.217-2.215c0.762,0,1.625,0.295,2.305,0.791l0.135,0.098l1.571-3.134l-0.097-0.073   C214.964,13.253,213.538,12.812,212.036,12.812"/>
	<path d="M220.059,12.583c-1.354,0-2.335,1.023-2.335,2.434c0,1.369,1.004,2.402,2.335,2.402s2.335-1.033,2.335-2.402   C222.394,13.63,221.39,12.583,220.059,12.583"/>
	<rect x="218.052" y="19.853" width="4.015" height="17.701"/>
	<path d="M237.308,19.722c-2.912,0-5.021,1.031-6.274,3.07v-2.939h-4.047v17.701h4.047l-0.001-9.394   c0.27-2.776,2.156-4.591,4.805-4.62c2.536,0,4.05,1.525,4.05,4.082v9.932h4.047V26.576   C243.934,22.285,241.457,19.722,237.308,19.722"/>
	<path d="M261.312,19.853v2.5c-1.269-1.725-3.206-2.633-5.631-2.633l-0.121,0.002c-4.706,0.033-7.867,3.418-7.867,8.424   c0,5.119,3.215,8.557,8,8.557c2.443,0,4.376-0.904,5.619-2.621v1.727c0,2.918-2.09,4.803-5.324,4.803   c-1.977,0-3.637-0.578-5.385-1.873l-0.126-0.092l-1.754,2.969l0.11,0.074c2.271,1.535,4.733,2.314,7.318,2.314   c5.573,0,9.175-3.254,9.175-8.293V19.853H261.312z M256.443,33.474c-2.918,0-4.9-2.102-4.933-5.227   c0.032-3.061,2.061-5.197,4.933-5.197c2.866,0,4.868,2.137,4.868,5.194C261.312,31.323,259.31,33.474,256.443,33.474"/>
	<path d="M35.22,14.066l-12.923,16.67l7.827-1.078L23.365,44.52l12.922-17.727l-7.826,1.076L35.22,14.066 M29.292,58.586   C13.14,58.586,0,45.445,0,29.293S13.14,0,29.292,0s29.293,13.141,29.293,29.293S45.444,58.586,29.292,58.586 M29.292,2.728   c-14.648,0-26.566,11.918-26.566,26.565c0,14.649,11.918,26.567,26.566,26.567s26.566-11.918,26.566-26.567   C55.858,14.646,43.94,2.728,29.292,2.728"/>
</g>
</svg>