<svg xmlns="http://www.w3.org/2000/svg" viewBox="0 0 280 57.74"><defs><style>.cls-1{fill:#003a70;}.cls-2,.cls-3,.cls-4,.cls-5{fill:#ff4c00;}.cls-3{opacity:0.5;}.cls-4{opacity:0.8;}.cls-5{opacity:0.6;}</style></defs><title>Asset 1</title><g id="Layer_2" data-name="Layer 2"><g id="Layer_1-2" data-name="Layer 1"><path class="cls-1" d="M.37,35.48a5.22,5.22,0,0,1,.54-2.37,5.62,5.62,0,0,1,1.47-1.85,6.66,6.66,0,0,1,2.24-1.18,9.37,9.37,0,0,1,2.85-.42A10,10,0,0,1,9.89,30a8.33,8.33,0,0,1,2,.93,5.35,5.35,0,0,1,1.74,1.81,2.33,2.33,0,0,1,.29,1,1.51,1.51,0,0,1-.44,1.08,1.41,1.41,0,0,1-1.06.46,1.61,1.61,0,0,1-1.29-.66A5.72,5.72,0,0,0,9.6,33.25a4.38,4.38,0,0,0-2.12-.44,4.84,4.84,0,0,0-2.87.77,2.26,2.26,0,0,0-1.08,1.89,2.17,2.17,0,0,0,1,2.08,6,6,0,0,0,2.91.58,10.46,10.46,0,0,1,2.91.39,7,7,0,0,1,2.39,1.18,6.16,6.16,0,0,1,1.62,7.39,5.63,5.63,0,0,1-1.66,2,7.15,7.15,0,0,1-2.45,1.16,11.21,11.21,0,0,1-2.93.37q-.33,0-1.23-.1a7.23,7.23,0,0,1-2-.56A8.55,8.55,0,0,1,2,48.54a7.21,7.21,0,0,1-1.85-2.6A1.46,1.46,0,0,1,0,45.36a1.58,1.58,0,0,1,.44-1.1,1.47,1.47,0,0,1,1.14-.48,1.45,1.45,0,0,1,.87.27,1.8,1.8,0,0,1,.58.73,4,4,0,0,0,1.83,2,5.38,5.38,0,0,0,2.62.71,9.47,9.47,0,0,0,1.68-.15,4,4,0,0,0,1.39-.5,2.68,2.68,0,0,0,.93-1,2.87,2.87,0,0,0,.35-1.47,2.47,2.47,0,0,0-1.27-2.43,6.79,6.79,0,0,0-3.09-.64A13.13,13.13,0,0,1,4.63,41a5.91,5.91,0,0,1-2.24-1A4.78,4.78,0,0,1,.91,38.24,6.25,6.25,0,0,1,.37,35.48Z"/><path class="cls-1" d="M18.94,31.41a1.49,1.49,0,0,1,.48-1.12,1.55,1.55,0,0,1,1.1-.46,1.56,1.56,0,0,1,1.58,1.58V43.12a4.54,4.54,0,0,0,1.08,3.05A3.58,3.58,0,0,0,26,47.44,3.55,3.55,0,0,0,29,46.17a4.66,4.66,0,0,0,1-3.05V31.41a1.49,1.49,0,0,1,.48-1.12,1.55,1.55,0,0,1,1.1-.46,1.56,1.56,0,0,1,1.58,1.58V43.12a4.55,4.55,0,0,0,1.08,3.05,3.92,3.92,0,0,0,5.77,0,4.66,4.66,0,0,0,1-3.05V31.41a1.49,1.49,0,0,1,.48-1.12,1.55,1.55,0,0,1,1.1-.46,1.56,1.56,0,0,1,1.58,1.58V43.12A8.14,8.14,0,0,1,43.68,46a7.16,7.16,0,0,1-1.47,2.39,6.91,6.91,0,0,1-5.11,2.18,6.63,6.63,0,0,1-3.16-.75,7.39,7.39,0,0,1-2.37-2,7.4,7.4,0,0,1-2.37,2A6.63,6.63,0,0,1,26,50.6,6.93,6.93,0,0,1,23.2,50,6.7,6.7,0,0,1,21,48.42,7.6,7.6,0,0,1,19.48,46a7.85,7.85,0,0,1-.54-2.91Z"/><path class="cls-1" d="M47.77,24.1a1.56,1.56,0,0,1,1.58-1.58,1.55,1.55,0,0,1,1.1.46,1.49,1.49,0,0,1,.48,1.12v1.2a1.56,1.56,0,0,1-1.58,1.58,1.54,1.54,0,0,1-1.1-.46,1.49,1.49,0,0,1-.48-1.12Zm0,7.31a1.56,1.56,0,0,1,1.58-1.58,1.55,1.55,0,0,1,1.1.46,1.5,1.5,0,0,1,.48,1.12V48.85a1.56,1.56,0,0,1-1.58,1.58,1.54,1.54,0,0,1-1.1-.46,1.49,1.49,0,0,1-.48-1.12Z"/><path class="cls-1" d="M55,35.48a5.22,5.22,0,0,1,.54-2.37A5.62,5.62,0,0,1,57,31.26a6.66,6.66,0,0,1,2.24-1.18,9.37,9.37,0,0,1,2.85-.42,10,10,0,0,1,2.41.37,8.33,8.33,0,0,1,2,.93,5.35,5.35,0,0,1,1.74,1.81,2.33,2.33,0,0,1,.29,1,1.51,1.51,0,0,1-.44,1.08,1.41,1.41,0,0,1-1.06.46,1.61,1.61,0,0,1-1.29-.66,5.72,5.72,0,0,0-1.58-1.39,4.38,4.38,0,0,0-2.12-.44,4.84,4.84,0,0,0-2.87.77,2.26,2.26,0,0,0-1.08,1.89,2.17,2.17,0,0,0,1,2.08,6,6,0,0,0,2.91.58,10.46,10.46,0,0,1,2.91.39,7,7,0,0,1,2.39,1.18A6.16,6.16,0,0,1,69,47.11a5.63,5.63,0,0,1-1.66,2,7.15,7.15,0,0,1-2.45,1.16,11.21,11.21,0,0,1-2.93.37q-.33,0-1.23-.1a7.23,7.23,0,0,1-2-.56,8.55,8.55,0,0,1-2.18-1.39,7.21,7.21,0,0,1-1.85-2.6,1.46,1.46,0,0,1-.12-.58,1.58,1.58,0,0,1,.44-1.1,1.47,1.47,0,0,1,1.14-.48,1.45,1.45,0,0,1,.87.27,1.8,1.8,0,0,1,.58.73,4,4,0,0,0,1.83,2,5.38,5.38,0,0,0,2.62.71,9.47,9.47,0,0,0,1.68-.15,4,4,0,0,0,1.39-.5,2.68,2.68,0,0,0,.93-1,2.87,2.87,0,0,0,.35-1.47,2.47,2.47,0,0,0-1.27-2.43,6.79,6.79,0,0,0-3.09-.64A13.13,13.13,0,0,1,59.21,41,5.91,5.91,0,0,1,57,40a4.78,4.78,0,0,1-1.47-1.79A6.25,6.25,0,0,1,55,35.48Z"/><path class="cls-1" d="M73.6,35.48a5.22,5.22,0,0,1,.54-2.37,5.62,5.62,0,0,1,1.47-1.85,6.66,6.66,0,0,1,2.24-1.18,9.37,9.37,0,0,1,2.85-.42,10,10,0,0,1,2.41.37,8.33,8.33,0,0,1,2,.93,5.35,5.35,0,0,1,1.74,1.81,2.33,2.33,0,0,1,.29,1,1.51,1.51,0,0,1-.44,1.08,1.41,1.41,0,0,1-1.06.46,1.61,1.61,0,0,1-1.29-.66,5.72,5.72,0,0,0-1.58-1.39,4.38,4.38,0,0,0-2.12-.44,4.84,4.84,0,0,0-2.87.77,2.26,2.26,0,0,0-1.08,1.89,2.17,2.17,0,0,0,1,2.08,6,6,0,0,0,2.91.58,10.46,10.46,0,0,1,2.91.39A7,7,0,0,1,86,39.71a6.16,6.16,0,0,1,1.62,7.39,5.63,5.63,0,0,1-1.66,2,7.15,7.15,0,0,1-2.45,1.16,11.21,11.21,0,0,1-2.93.37q-.33,0-1.23-.1a7.23,7.23,0,0,1-2-.56,8.55,8.55,0,0,1-2.18-1.39,7.21,7.21,0,0,1-1.85-2.6,1.46,1.46,0,0,1-.12-.58,1.58,1.58,0,0,1,.44-1.1,1.47,1.47,0,0,1,1.14-.48,1.45,1.45,0,0,1,.87.27,1.8,1.8,0,0,1,.58.73,4,4,0,0,0,1.83,2,5.38,5.38,0,0,0,2.62.71,9.47,9.47,0,0,0,1.68-.15,4,4,0,0,0,1.39-.5,2.68,2.68,0,0,0,.93-1,2.87,2.87,0,0,0,.35-1.47,2.47,2.47,0,0,0-1.27-2.43,6.79,6.79,0,0,0-3.09-.64A13.13,13.13,0,0,1,77.86,41a5.91,5.91,0,0,1-2.24-1,4.78,4.78,0,0,1-1.47-1.79A6.25,6.25,0,0,1,73.6,35.48Z"/><path class="cls-2" d="M128.81,37.14a7.24,7.24,0,0,1,2.26-5.32,8.11,8.11,0,0,1,2.45-1.58,7.63,7.63,0,0,1,3-.58c.19,0,.57,0,1.14.1a6.84,6.84,0,0,1,1.89.56,7.61,7.61,0,0,1,2.06,1.39,7,7,0,0,1,1.68,2.6,1.7,1.7,0,0,1,.13.58,1.56,1.56,0,0,1-1.58,1.58,1.54,1.54,0,0,1-.89-.27,1.46,1.46,0,0,1-.56-.73,4.6,4.6,0,0,0-1.66-2,4.23,4.23,0,0,0-2.37-.71,4.33,4.33,0,0,0-4,2.66,4.23,4.23,0,0,0-.33,1.66v6a4,4,0,0,0,.35,1.66,4.8,4.8,0,0,0,.93,1.39,4,4,0,0,0,1.39.93,4.4,4.4,0,0,0,1.68.33,4.32,4.32,0,0,0,4-2.66,1.79,1.79,0,0,1,.58-.73,1.45,1.45,0,0,1,.87-.27,1.49,1.49,0,0,1,1.12.48,1.55,1.55,0,0,1,.46,1.1,1.47,1.47,0,0,1-.13.58,7.6,7.6,0,0,1-2,2.78A8.16,8.16,0,0,1,139,50.1a6.53,6.53,0,0,1-1.87.46l-.81,0a7.38,7.38,0,0,1-2.91-.58,7.46,7.46,0,0,1-2.39-1.6A7.73,7.73,0,0,1,129.41,46a7.14,7.14,0,0,1-.6-2.91Z"/><path class="cls-2" d="M147.46,24.1A1.56,1.56,0,0,1,149,22.52a1.55,1.55,0,0,1,1.1.46,1.49,1.49,0,0,1,.48,1.12v7a7.44,7.44,0,0,1,2-1,7.5,7.5,0,0,1,5.23.21,7.47,7.47,0,0,1,2.39,1.6,7.79,7.79,0,0,1,1.62,2.39,7.17,7.17,0,0,1,.6,2.91V48.85A1.49,1.49,0,0,1,162,50a1.54,1.54,0,0,1-1.1.46,1.56,1.56,0,0,1-1.58-1.58V37.14a4,4,0,0,0-.35-1.66,4.84,4.84,0,0,0-.93-1.39,4.06,4.06,0,0,0-1.39-.93,4.39,4.39,0,0,0-1.68-.33,4.2,4.2,0,0,0-1.68.33,4.8,4.8,0,0,0-1.37.89,4,4,0,0,0-.93,1.31,4.48,4.48,0,0,0-.37,1.62V48.85a1.49,1.49,0,0,1-.48,1.12,1.54,1.54,0,0,1-1.1.46,1.56,1.56,0,0,1-1.58-1.58V24.1Z"/><path class="cls-2" d="M166.69,37.14a7.39,7.39,0,0,1,2.2-5.3,7.79,7.79,0,0,1,2.39-1.6,7.61,7.61,0,0,1,5.84,0,7.48,7.48,0,0,1,2.39,1.6,7.77,7.77,0,0,1,1.62,2.39,7.17,7.17,0,0,1,.6,2.91V48.85a1.49,1.49,0,0,1-.48,1.12,1.55,1.55,0,0,1-1.1.46,1.57,1.57,0,0,1-1-.35,1.38,1.38,0,0,1-.52-.89,7.21,7.21,0,0,1-4.4,1.41A7.38,7.38,0,0,1,171.3,50a7.46,7.46,0,0,1-2.39-1.6A7.72,7.72,0,0,1,167.29,46a7.14,7.14,0,0,1-.6-2.91Zm3.16,6a4,4,0,0,0,.35,1.66,4.78,4.78,0,0,0,.93,1.39,4,4,0,0,0,1.39.93,4.4,4.4,0,0,0,1.68.33,4.48,4.48,0,0,0,1.66-.31,4.14,4.14,0,0,0,1.37-.87,4.43,4.43,0,0,0,.93-1.31,4.21,4.21,0,0,0,.39-1.62V37.14a4,4,0,0,0-.35-1.66,4.84,4.84,0,0,0-.93-1.39,4.06,4.06,0,0,0-1.39-.93,4.39,4.39,0,0,0-1.68-.33,4.34,4.34,0,0,0-4,2.66,4.24,4.24,0,0,0-.33,1.66Z"/><path class="cls-2" d="M186,31.41a1.56,1.56,0,0,1,2.55-1.22,1.59,1.59,0,0,1,.56.93,7.44,7.44,0,0,1,4.57-1.45A12.28,12.28,0,0,1,196,30a5.56,5.56,0,0,1,1.56.73,1.54,1.54,0,0,1,.71,1.35,1.51,1.51,0,0,1-.46,1.14,1.56,1.56,0,0,1-1.12.44,1.62,1.62,0,0,1-1-.29,4.45,4.45,0,0,0-2.2-.58,4.19,4.19,0,0,0-1.68.33,4.77,4.77,0,0,0-1.37.89,4,4,0,0,0-.93,1.31A4.45,4.45,0,0,0,189.2,37V48.85a1.56,1.56,0,0,1-1.58,1.58,1.54,1.54,0,0,1-1.1-.46,1.49,1.49,0,0,1-.48-1.12V31.41Z"/><path class="cls-2" d="M200.17,37.14a7.39,7.39,0,0,1,2.2-5.3,7.79,7.79,0,0,1,2.39-1.6,7.61,7.61,0,0,1,5.84,0,7.48,7.48,0,0,1,2.39,1.6,7.77,7.77,0,0,1,1.62,2.39,7.17,7.17,0,0,1,.6,2.91V50.26a7.17,7.17,0,0,1-.6,2.91A7.77,7.77,0,0,1,213,55.56a7.48,7.48,0,0,1-2.39,1.6,7.38,7.38,0,0,1-2.91.58,1.58,1.58,0,1,1,0-3.16,4.39,4.39,0,0,0,1.68-.33,4.06,4.06,0,0,0,1.39-.93,4.84,4.84,0,0,0,.93-1.39,4,4,0,0,0,.35-1.66v-1a7.54,7.54,0,0,1-9.66-.81A7.72,7.72,0,0,1,200.77,46a7.14,7.14,0,0,1-.6-2.91Zm3.16,6a4,4,0,0,0,.35,1.66,4.78,4.78,0,0,0,.93,1.39,4,4,0,0,0,1.39.93,4.4,4.4,0,0,0,1.68.33,4.48,4.48,0,0,0,1.66-.31,4.14,4.14,0,0,0,1.37-.87,4.43,4.43,0,0,0,.93-1.31,4.21,4.21,0,0,0,.39-1.62V37.14a4,4,0,0,0-.35-1.66,4.84,4.84,0,0,0-.93-1.39,4.06,4.06,0,0,0-1.39-.93,4.39,4.39,0,0,0-1.68-.33,4.34,4.34,0,0,0-4,2.66,4.24,4.24,0,0,0-.33,1.66Z"/><path class="cls-2" d="M219.4,37.14a7.39,7.39,0,0,1,2.2-5.3,7.79,7.79,0,0,1,2.39-1.6,7.61,7.61,0,0,1,5.84,0,7.48,7.48,0,0,1,2.39,1.6,7.77,7.77,0,0,1,1.62,2.39,7.17,7.17,0,0,1,.6,2.91v3a1.56,1.56,0,0,1-1.58,1.58h-10.3v1.41a4,4,0,0,0,.35,1.66,4.78,4.78,0,0,0,.93,1.39,4,4,0,0,0,1.39.93,4.4,4.4,0,0,0,1.68.33,4.32,4.32,0,0,0,4-2.53l0-.13a1.46,1.46,0,0,1,.56-.73,1.55,1.55,0,0,1,.89-.27,1.49,1.49,0,0,1,1.12.48,1.55,1.55,0,0,1,.46,1.1,1.46,1.46,0,0,1-.12.58l-.08.17a7.49,7.49,0,0,1-2.7,3.24,7.2,7.2,0,0,1-4.15,1.25A7.38,7.38,0,0,1,224,50a7.46,7.46,0,0,1-2.39-1.6A7.72,7.72,0,0,1,220,46a7.14,7.14,0,0,1-.6-2.91Zm3.16,1.41h8.72V37.14a4,4,0,0,0-.35-1.66,4.84,4.84,0,0,0-.93-1.39,4.06,4.06,0,0,0-1.39-.93,4.39,4.39,0,0,0-1.68-.33,4.34,4.34,0,0,0-4,2.66,4.24,4.24,0,0,0-.33,1.66Z"/><path class="cls-2" d="M238.38,48.85A1.56,1.56,0,0,1,240,47.27a1.55,1.55,0,0,1,1.1.46,1.49,1.49,0,0,1,.48,1.12A1.57,1.57,0,0,1,238.86,50,1.49,1.49,0,0,1,238.38,48.85Z"/><path class="cls-2" d="M246.31,37.14a7.24,7.24,0,0,1,2.26-5.32A8.11,8.11,0,0,1,251,30.24a7.63,7.63,0,0,1,3-.58c.19,0,.57,0,1.14.1a6.84,6.84,0,0,1,1.89.56,7.61,7.61,0,0,1,2.06,1.39,7,7,0,0,1,1.68,2.6,1.7,1.7,0,0,1,.13.58,1.56,1.56,0,0,1-1.58,1.58,1.54,1.54,0,0,1-.89-.27,1.46,1.46,0,0,1-.56-.73,4.6,4.6,0,0,0-1.66-2,4.23,4.23,0,0,0-2.37-.71,4.33,4.33,0,0,0-4,2.66,4.23,4.23,0,0,0-.33,1.66v6a4,4,0,0,0,.35,1.66,4.81,4.81,0,0,0,.93,1.39,4,4,0,0,0,1.39.93,4.39,4.39,0,0,0,1.68.33,4.32,4.32,0,0,0,4-2.66,1.79,1.79,0,0,1,.58-.73,1.45,1.45,0,0,1,.87-.27,1.49,1.49,0,0,1,1.12.48,1.55,1.55,0,0,1,.46,1.1,1.47,1.47,0,0,1-.13.58,7.6,7.6,0,0,1-2,2.78,8.16,8.16,0,0,1-2.26,1.37,6.53,6.53,0,0,1-1.87.46l-.81,0a7.38,7.38,0,0,1-2.91-.58,7.45,7.45,0,0,1-2.39-1.6A7.74,7.74,0,0,1,246.92,46a7.14,7.14,0,0,1-.6-2.91Z"/><path class="cls-2" d="M265,24.1a1.56,1.56,0,0,1,1.58-1.58,1.55,1.55,0,0,1,1.1.46,1.49,1.49,0,0,1,.48,1.12v7a7.44,7.44,0,0,1,2-1,7.5,7.5,0,0,1,5.23.21,7.47,7.47,0,0,1,2.39,1.6,7.79,7.79,0,0,1,1.62,2.39,7.17,7.17,0,0,1,.6,2.91V48.85a1.49,1.49,0,0,1-.48,1.12,1.54,1.54,0,0,1-1.1.46,1.56,1.56,0,0,1-1.58-1.58V37.14a4,4,0,0,0-.35-1.66,4.84,4.84,0,0,0-.93-1.39,4.06,4.06,0,0,0-1.39-.93,4.39,4.39,0,0,0-1.68-.33,4.2,4.2,0,0,0-1.68.33,4.8,4.8,0,0,0-1.37.89,4,4,0,0,0-.93,1.31,4.48,4.48,0,0,0-.37,1.62V48.85a1.49,1.49,0,0,1-.48,1.12,1.54,1.54,0,0,1-1.1.46A1.56,1.56,0,0,1,265,48.85V24.1Z"/><path class="cls-3" d="M110.41,30.31c-.16-.06-.18-.11-.34-.18l-.34-.16a10.06,10.06,0,0,1-5.18-6.23,10.24,10.24,0,0,1,1-8.09l.2-.32.29-.42,0-.06a10.25,10.25,0,0,0,.74-7.58A9.91,9.91,0,0,0,94.46.41,10.12,10.12,0,0,0,87.77,13a10.07,10.07,0,0,0,4.67,6l0,.06.44.18.43.2a10.05,10.05,0,0,1,5.12,6.21,10.24,10.24,0,0,1-1,8l-.25.4c-.09.13-.13.26-.22.39l0,.07a10.24,10.24,0,0,0-.74,7.58,9.91,9.91,0,0,0,12.32,6.85,10.18,10.18,0,0,0,2-18.51Z"/><path class="cls-1" d="M121.07,8.57c-.13.11-.29.18-.43.29l-.3.22a9.71,9.71,0,0,1-7.87,1.45,9.94,9.94,0,0,1-6.36-5l-.18-.34c-.07-.15-.16-.25-.23-.4l0-.07a9.84,9.84,0,0,0-18,3A10.14,10.14,0,0,0,95,19.94a9.7,9.7,0,0,0,7.39-1.13l.06,0c.12-.1.25-.14.37-.24l.39-.28A9.71,9.71,0,0,1,111,16.84a9.93,9.93,0,0,1,6.33,4.91l.22.42c.07.14.13.24.19.38l.07.07a9.84,9.84,0,0,0,18-3,10.14,10.14,0,0,0-7.32-12.2,9.7,9.7,0,0,0-7.39,1.13Z"/><path class="cls-4" d="M116.27,17.47c0,.17,0,.29,0,.46s0,.25,0,.38a10.18,10.18,0,0,1-2.7,7.68,9.77,9.77,0,0,1-7.38,3.13l-.38,0c-.17,0-.27,0-.44,0h-.11a9.77,9.77,0,0,0-6.81,3.12,10.25,10.25,0,0,0,.37,14.29,9.78,9.78,0,0,0,14-.34,10.16,10.16,0,0,0,2.72-7.09V39c0-.16,0-.24,0-.4s0-.32,0-.48a10.18,10.18,0,0,1,2.7-7.62,9.77,9.77,0,0,1,7.32-3.13l.47,0c.16,0,.31,0,.47,0h0a9.77,9.77,0,0,0,6.81-3.13A10.25,10.25,0,0,0,133,9.93a9.78,9.78,0,0,0-14,.34,10.16,10.16,0,0,0-2.72,7.09Z"/><ellipse class="cls-5" cx="126.18" cy="17.25" rx="9.93" ry="10.12"/></g></g></svg>
